<svg xmlns="http://www.w3.org/2000/svg" width="23" height="21" viewBox="0 0 23 21">
    <g fill="none" fill-rule="evenodd">
        <g fill="#000" fill-rule="nonzero">
            <g>
                <g>
                    <g>
                        <path d="M18.5 4.295h-2.55C15.599 1.83 13.489 0 11 0 8.511 0 6.401 1.83 6.05 4.295H3.5c-1.933 0-3.5 1.567-3.5 3.5v9c0 1.933 1.567 3.5 3.5 3.5h15c1.933 0 3.5-1.567 3.5-3.5v-9c0-1.933-1.567-3.5-3.5-3.5zM11 .795c2.009.009 3.699 1.507 3.95 3.5h-7.9C7.31 2.31 8.998.823 11 .815v-.02zm10 16c0 1.38-1.12 2.5-2.5 2.5h-15c-1.38 0-2.5-1.12-2.5-2.5v-9c0-1.381 1.12-2.5 2.5-2.5H6v4h1v-4h8v4h1v-4h2.5c1.38 0 2.5 1.119 2.5 2.5v9z" transform="translate(-1484 -26) translate(360 19) translate(1124.21 7.705)"></path>
                    </g>
                </g>
            </g>
        </g>
    </g>
</svg>